{"title":"Paranormal Haunting - The Curse of the Blue Moon Inn (2011)","uid":8095262,"size":1036648235,"categoryP":"video","categoryS":"movies","magnet":"?xt=urn:btih:cbd5d1f06d7823b244e179baf4cbfc12457e5a99&amp;dn=Paranormal+Haunting+-+The+Curse+of+the+Blue+Moon+Inn+%282011%29&amp;tr=udp%3A%2F%2Ftracker.openbittorrent.com%3A80&amp;tr=udp%3A%2F%2Fopen.demonii.com%3A1337&amp;tr=udp%3A%2F%2Ftracker.coppersurfer.tk%3A6969&amp;tr=udp%3A%2F%2Fexodus.desync.com%3A6969","seeders":1,"leechers":0,"uploader":"RadioResearch","files":3,"time":1359821447,"description":"*******************************************************************************\n               Paranormal Haunting - Curse of the Blue Moon Inn\n*******************************************************************************\n\n-------------------------------------------------------------------------------\n                              General Information\n-------------------------------------------------------------------------------\nType.................: Movie\nPlatform.............: AVI\n\n\n\nVideo Format.........: AVI\nVideo Bitrate........: 1411\nResolution...........: 720 x 404\nColor................: 8 bit\nFPS..................: 29.97\nSource...............: DVD 16x9\nOriginal Format......: NTSC\nGenre................: Horror\nIMDb Rating..........: 4\nMovie Information....: http://www.imdb.com/title/tt2046130/\n\n-------------------------------------------------------------------------------\n                               Post Information\n-------------------------------------------------------------------------------\nPosted by............: RadioResearch\nPosted on............: 2/2/2013\n\n-------------------------------------------------------------------------------\n                                 Release Notes\n-------------------------------------------------------------------------------\nHigh in the peak stands the Blue Moon Inn, the home of Matthew Hopkins for as \nlong as anybody cares to remember. Here is the place where once every century \nthe moon appears to turn blue and all-manner of strange and terrifying events \nare said to be unleashed upon the land. The time has come and with it a small \ngroup of interested individuals. An astronomer, an astrologer and a documentary \nfilmmaker all arrive unaware of the evils that will befall them. A nightmare \nunfolds upon each one until the final shocking conclusion. Prepare for \nwitchcraft, occult rituals and answers to age-old mysteries. Prepare yourselves \nfor the Blue Moon.\n\nI had to check twice, however the film really is supposed to be blurry and dreamy in parts\nand also viewed through the lens of a camera.  This is an interesting little Indie film,\nand hopefully will not be too irritating with its use of blurry sequences.\n\nEnjoy!\n\nRadioResearch\n\nGeneral\nComplete name                            : G:AVIParanormal Haunting - The Curse of the Blue Moon Inn (2012)Paranormal Haunt_Title1.avi\nFormat                                   : AVI\nFormat/Info                              : Audio Video Interleave\nFile size                                : 989 MiB\nDuration                                 : 1h 37mn\nOverall bit rate                         : 1 411 Kbps\nMovie name                               : Paranormal_Haunt\nWriting application                      : MEncoder 5.0\nID                                       : 0\nFormat                                   : MPEG-4 Visual\nFormat profile                           : Simple@L1\nFormat settings, BVOP                    : No\nFormat settings, QPel                    : No\nFormat settings, GMC                     : No warppoints\nFormat settings, Matrix                  : Default (H.263)\nCodec ID                                 : DX50\nCodec ID/Hint                            : DivX 5\nDuration                                 : 1h 37mn\nBit rate                                 : 1 181 Kbps\nWidth                                    : 720 pixels\nHeight                                   : 404 pixels\nDisplay aspect ratio                     : 16:9\nFrame rate                               : 29.970 fps\nColor space                              : YUV\nChroma subsampling                       : 4:2:0\nBit depth                                : 8 bits\nScan type                                : Progressive\nCompression mode                         : Lossy\nBits/(Pixel*Frame)                       : 0.135\nStream size                              : 827 MiB (84%)\nWriting library                          : Lavc54.71.100\n\nAudio\nID                                       : 1\nFormat                                   : MPEG Audio\nFormat version                           : Version 1\nFormat profile                           : Layer 2\nCodec ID                                 : 50\nDuration                                 : 1h 37mn\nBit rate mode                            : Constant\nBit rate                                 : 224 Kbps\nChannel(s)                               : 2 channels\nSampling rate                            : 48.0 KHz\nCompression mode                         : Lossy\nStream size                              : 157 MiB (16%)\nAlignment                                : Split accross interleaves\nInterleave, duration                     : 500 ms (14.98 video frames)\nInterleave, preload duration             : 500 ms\n\n\n\n-------------------------------------------------------------------------------\nGenerated with Cool NFO Creator - http://fly.to/coolbeans\n-------------------------------------------------------------------------------\n","torrent":{"xt":"urn:btih:cbd5d1f06d7823b244e179baf4cbfc12457e5a99","amp;dn":"Paranormal+Haunting+-+The+Curse+of+the+Blue+Moon+Inn+%282011%29","amp;tr":["udp%3A%2F%2Ftracker.openbittorrent.com%3A80","udp%3A%2F%2Fopen.demonii.com%3A1337","udp%3A%2F%2Ftracker.coppersurfer.tk%3A6969","udp%3A%2F%2Fexodus.desync.com%3A6969"],"infoHash":"cbd5d1f06d7823b244e179baf4cbfc12457e5a99","infoHashBuffer":{"type":"Buffer","data":[203,213,209,240,109,120,35,178,68,225,121,186,244,203,252,18,69,126,90,153]},"announce":[],"urlList":[]}}